<svg width="965" height="487" viewBox="0 0 965 487" fill="none" xmlns="http://www.w3.org/2000/svg">
<path d="M340.512 352.664C338.496 353.112 335.808 353.672 332.448 354.344C329.088 355.016 325.28 355.352 321.024 355.352C313.184 355.352 307.36 353.896 303.552 350.984C299.744 348.072 297.84 342.92 297.84 335.528V134.6C299.632 133.928 302.208 133.368 305.568 132.92C309.152 132.248 313.072 131.912 317.328 131.912C325.168 131.912 330.992 133.368 334.8 136.28C338.608 139.192 340.512 144.344 340.512 151.736V255.896L405.696 191.048C414.208 191.048 421.04 192.952 426.192 196.76C431.344 200.568 433.92 205.384 433.92 211.208C433.92 216.36 432.24 220.84 428.88 224.648C425.744 228.456 420.704 233.272 413.76 239.096L377.472 270.68L441.648 330.824C440.752 338.664 438.4 344.824 434.592 349.304C430.784 353.56 425.296 355.688 418.128 355.688C412.976 355.688 408.384 354.456 404.352 351.992C400.544 349.528 395.84 345.16 390.24 338.888L340.512 283.784V352.664ZM474.395 195.08C476.187 194.632 478.763 194.072 482.123 193.4C485.707 192.728 489.515 192.392 493.547 192.392C501.611 192.392 507.435 193.848 511.019 196.76C514.827 199.672 516.731 204.824 516.731 212.216V352.664C514.939 353.112 512.251 353.672 508.667 354.344C505.307 355.016 501.611 355.352 497.579 355.352C489.515 355.352 483.579 353.896 479.771 350.984C476.187 348.072 474.395 342.92 474.395 335.528V195.08ZM471.035 146.36C471.035 139.864 473.275 134.376 477.755 129.896C482.459 125.192 488.395 122.84 495.563 122.84C502.731 122.84 508.555 125.192 513.035 129.896C517.515 134.376 519.755 139.864 519.755 146.36C519.755 153.08 517.515 158.792 513.035 163.496C508.555 167.976 502.731 170.216 495.563 170.216C488.395 170.216 482.459 167.976 477.755 163.496C473.275 158.792 471.035 153.08 471.035 146.36ZM684.636 307.976C684.636 323.656 678.812 335.976 667.164 344.936C655.516 353.672 638.492 358.04 616.092 358.04C606.908 358.04 598.508 357.368 590.892 356.024C583.5 354.68 577.004 352.776 571.404 350.312C566.028 347.624 561.772 344.488 558.636 340.904C555.724 337.096 554.268 332.952 554.268 328.472C554.268 324.216 555.164 320.52 556.956 317.384C558.972 314.248 561.548 311.672 564.684 309.656C570.956 313.688 578.124 317.272 586.188 320.408C594.476 323.544 603.996 325.112 614.748 325.112C623.932 325.112 630.876 323.656 635.58 320.744C640.284 317.608 642.636 313.352 642.636 307.976C642.636 298.792 635.916 292.744 622.476 289.832L603.66 285.464C587.084 281.656 574.764 275.944 566.7 268.328C558.86 260.712 554.94 250.52 554.94 237.752C554.94 223.192 560.764 211.432 572.412 202.472C584.06 193.288 600.412 188.696 621.468 188.696C629.532 188.696 636.924 189.368 643.644 190.712C650.588 191.832 656.524 193.624 661.452 196.088C666.604 198.328 670.524 201.128 673.212 204.488C676.124 207.624 677.58 211.32 677.58 215.576C677.58 219.608 676.684 223.192 674.892 226.328C673.1 229.24 670.972 231.592 668.508 233.384C666.492 232.04 663.804 230.696 660.444 229.352C657.308 228.008 653.724 226.776 649.692 225.656C645.884 224.536 641.74 223.64 637.26 222.968C633.004 222.072 628.748 221.624 624.492 221.624C615.756 221.624 608.924 223.08 603.996 225.992C599.068 228.68 596.604 232.6 596.604 237.752C596.604 241.56 597.948 244.696 600.636 247.16C603.548 249.624 608.476 251.64 615.42 253.208L631.884 257.24C650.476 261.496 663.916 267.768 672.204 276.056C680.492 284.12 684.636 294.76 684.636 307.976ZM784.594 325.784C791.09 325.784 797.026 325.224 802.402 324.104C807.778 322.76 811.698 321.192 814.162 319.4V282.104L781.57 285.128C772.61 286.024 765.778 288.04 761.074 291.176C756.37 294.088 754.018 298.792 754.018 305.288C754.018 311.784 756.37 316.824 761.074 320.408C766.002 323.992 773.842 325.784 784.594 325.784ZM783.25 189.032C805.202 189.032 822.674 193.736 835.666 203.144C848.882 212.552 855.49 227.112 855.49 246.824V324.44C855.49 329.816 854.146 334.072 851.458 337.208C848.77 340.344 845.41 343.144 841.378 345.608C835.106 349.416 827.154 352.44 817.522 354.68C807.89 356.92 796.914 358.04 784.594 358.04C762.194 358.04 744.498 353.784 731.506 345.272C718.738 336.536 712.354 323.544 712.354 306.296C712.354 291.288 717.058 279.864 726.466 272.024C736.098 263.96 749.986 259.032 768.13 257.24L814.162 252.536V246.488C814.162 237.976 811.026 231.704 804.754 227.672C798.706 223.64 790.082 221.624 778.882 221.624C770.146 221.624 761.634 222.744 753.346 224.984C745.058 227 737.666 229.576 731.17 232.712C728.706 230.92 726.578 228.568 724.786 225.656C723.218 222.52 722.434 219.16 722.434 215.576C722.434 211.096 723.442 207.512 725.458 204.824C727.698 201.912 731.17 199.336 735.874 197.096C742.37 194.408 749.762 192.392 758.05 191.048C766.338 189.704 774.738 189.032 783.25 189.032ZM898.989 195.08C900.781 194.632 903.357 194.072 906.717 193.4C910.301 192.728 914.109 192.392 918.141 192.392C926.205 192.392 932.029 193.848 935.613 196.76C939.421 199.672 941.325 204.824 941.325 212.216V352.664C939.533 353.112 936.845 353.672 933.261 354.344C929.901 355.016 926.205 355.352 922.173 355.352C914.109 355.352 908.173 353.896 904.365 350.984C900.781 348.072 898.989 342.92 898.989 335.528V195.08ZM895.629 146.36C895.629 139.864 897.869 134.376 902.349 129.896C907.053 125.192 912.989 122.84 920.157 122.84C927.325 122.84 933.149 125.192 937.629 129.896C942.109 134.376 944.349 139.864 944.349 146.36C944.349 153.08 942.109 158.792 937.629 163.496C933.149 167.976 927.325 170.216 920.157 170.216C912.989 170.216 907.053 167.976 902.349 163.496C897.869 158.792 895.629 153.08 895.629 146.36Z" fill="#162B4D"/>
<path fill-rule="evenodd" clip-rule="evenodd" d="M56.6574 368.293C53.276 371.713 48.6665 373.638 43.8569 373.638H16C7.16344 373.638 0 366.475 0 357.638V254.868C0 250.755 1.62178 246.808 4.5135 243.883V243.883C10.7261 237.599 20.8566 237.541 27.1406 243.754L92.9552 308.82C99.2392 315.033 99.2971 325.163 93.0845 331.447L56.6574 368.293Z" fill="#03E6C6"/>
<path fill-rule="evenodd" clip-rule="evenodd" d="M227.234 240.463C227.234 243.564 226.011 246.54 223.831 248.745V248.745C217.618 255.029 207.488 255.087 201.204 248.874L134.759 183.185C128.475 176.972 128.417 166.841 134.63 160.557L171.419 123.345C174.8 119.925 179.41 118 184.22 118H211.234C220.07 118 227.234 125.163 227.234 134V240.463Z" fill="#FFCE46"/>
<path fill-rule="evenodd" clip-rule="evenodd" d="M216.434 299.859C223.063 298.329 227.235 305.441 227.235 312.245V357.595C227.235 366.432 220.071 373.595 211.235 373.595H167.979C162.17 373.595 156.002 370.765 155.764 364.961C155.588 360.68 157.122 356.34 160.372 353.052L208.67 304.199C210.879 301.965 213.583 300.517 216.434 299.859Z" fill="#B1D334"/>
<path fill-rule="evenodd" clip-rule="evenodd" d="M60.128 118C66.2274 118 72.6859 121.19 72.4624 127.285C72.3207 131.15 70.7852 134.976 67.8514 137.943L20.8205 185.515C17.4449 188.929 12.9126 190.505 8.46916 190.237C2.74358 189.89 0 183.796 0 178.06V134C0 125.163 7.16344 118 16 118H60.128Z" fill="#1B97DD"/>
<path fill-rule="evenodd" clip-rule="evenodd" d="M92.4765 191.784C81.816 202.798 81.9935 220.337 92.8747 231.133L127.209 265.2C136.267 274.188 136.325 288.816 127.337 297.875C118.35 306.933 103.721 306.99 94.6624 298.003L24.7275 228.613C22.6419 226.544 21.0335 224.175 19.9027 221.645C15.9859 213.222 17.4086 202.9 24.2547 195.827L92.771 125.036C101.645 115.867 116.273 115.628 125.442 124.503C134.611 133.377 134.849 148.004 125.975 157.173L92.4765 191.784Z" fill="#BD68F1"/>
<path fill-rule="evenodd" clip-rule="evenodd" d="M134.766 300.158C145.426 289.143 145.249 271.605 134.368 260.808L100.033 226.741C90.9748 217.754 90.9176 203.125 99.9051 194.067C108.893 185.009 123.522 184.951 132.58 193.939L202.515 263.328C204.6 265.398 206.209 267.766 207.339 270.297C211.256 278.72 209.834 289.041 202.988 296.115L134.471 366.905C125.597 376.074 110.97 376.313 101.801 367.439C92.6316 358.564 92.3928 343.937 101.267 334.768L134.766 300.158Z" fill="#F96E61"/>
</svg>
